<svg width="36" height="28" viewBox="0 0 36 28" fill="none" xmlns="http://www.w3.org/2000/svg">
<path d="M3.18711 27.6111C2.27857 27.6111 1.52058 27.3074 0.913139 26.6999C0.305695 26.0925 0.00131481 25.3339 0 24.424V3.18711C0 2.27857 0.30438 1.52058 0.913139 0.913139C1.5219 0.305694 2.27923 0.00131481 3.18514 0H32.3149C33.2221 0 33.9794 0.304379 34.5869 0.913139C35.1943 1.5219 35.4987 2.27989 35.5 3.18711V24.426C35.5 25.3332 35.1956 26.0912 34.5869 26.6999C33.9781 27.3087 33.2208 27.6124 32.3149 27.6111H3.18711ZM17.75 14.0343L1.97222 3.71764V24.426C1.97222 24.7797 2.08595 25.0702 2.31342 25.2977C2.54088 25.5252 2.83211 25.6389 3.18711 25.6389H32.3149C32.6685 25.6389 32.9591 25.5252 33.1866 25.2977C33.414 25.0702 33.5278 24.779 33.5278 24.424V3.71567L17.75 14.0343ZM17.75 11.8333L32.9203 1.97222H2.57967L17.75 11.8333ZM1.97222 3.71764V1.97222V24.426C1.97222 24.7797 2.08595 25.0702 2.31342 25.2977C2.54088 25.5252 2.83211 25.6389 3.18711 25.6389H1.97222V3.71764Z" fill="white"/>
</svg>
