<svg width="18" height="18" viewBox="0 0 18 18" fill="none" xmlns="http://www.w3.org/2000/svg">
<path d="M9.14237 0.40625C6.80848 0.40625 6.51552 0.416477 5.59891 0.458156C4.68402 0.500094 4.05952 0.644898 3.51313 0.857422C2.94783 1.07691 2.46838 1.37055 1.99074 1.84837C1.51267 2.32609 1.21902 2.80554 0.998852 3.37058C0.785727 3.91714 0.64075 4.54191 0.599586 5.45637C0.558594 6.37306 0.547852 6.66611 0.547852 9.00009C0.547852 11.3341 0.558164 11.6261 0.599758 12.5427C0.641867 13.4576 0.786672 14.0821 0.999023 14.6285C1.21868 15.1938 1.51233 15.6732 1.99014 16.1509C2.4677 16.6289 2.94714 16.9233 3.51201 17.1427C4.05883 17.3553 4.68342 17.5001 5.59814 17.542C6.51484 17.5837 6.80754 17.5939 9.14134 17.5939C11.4755 17.5939 11.7675 17.5837 12.6841 17.542C13.599 17.5001 14.2242 17.3553 14.771 17.1427C15.3361 16.9233 15.8148 16.6289 16.2923 16.1509C16.7704 15.6732 17.0639 15.1938 17.2842 14.6287C17.4954 14.0821 17.6405 13.4574 17.6834 12.5429C17.7246 11.6262 17.7354 11.3341 17.7354 9.00009C17.7354 6.66611 17.7246 6.37323 17.6834 5.45654C17.6405 4.54165 17.4954 3.91723 17.2842 3.37084C17.0639 2.80554 16.7704 2.32609 16.2923 1.84837C15.8143 1.37038 15.3362 1.07673 14.7705 0.857508C14.2227 0.644898 13.5978 0.500008 12.6829 0.458156C11.7662 0.416477 11.4744 0.40625 9.13971 0.40625H9.14237ZM8.37143 1.95493C8.60028 1.95459 8.8556 1.95493 9.14237 1.95493C11.437 1.95493 11.7089 1.96318 12.615 2.00434C13.4529 2.04267 13.9077 2.18266 14.2106 2.30031C14.6117 2.45603 14.8976 2.64226 15.1982 2.94313C15.499 3.24391 15.6851 3.53034 15.8413 3.93141C15.9589 4.23391 16.0991 4.68869 16.1373 5.52658C16.1784 6.43253 16.1874 6.70461 16.1874 8.99811C16.1874 11.2916 16.1784 11.5638 16.1373 12.4696C16.0989 13.3075 15.9589 13.7623 15.8413 14.0649C15.6856 14.466 15.499 14.7515 15.1982 15.0521C14.8974 15.3529 14.6119 15.5391 14.2106 15.6949C13.908 15.813 13.4529 15.9527 12.615 15.991C11.7091 16.0322 11.437 16.0411 9.14237 16.0411C6.84767 16.0411 6.57568 16.0322 5.66981 15.991C4.83192 15.9523 4.37714 15.8124 4.07395 15.6947C3.67297 15.5389 3.38645 15.3528 3.08567 15.052C2.78489 14.7512 2.59875 14.4655 2.4426 14.0642C2.32495 13.7616 2.18479 13.3068 2.14663 12.469C2.10547 11.563 2.09722 11.2909 2.09722 8.99596C2.09722 6.70109 2.10547 6.43038 2.14663 5.52443C2.18496 4.68654 2.32495 4.23176 2.4426 3.92883C2.59841 3.52776 2.78489 3.24133 3.08576 2.94055C3.38654 2.63977 3.67297 2.45354 4.07404 2.29748C4.37697 2.17931 4.83192 2.03966 5.66981 2.00116C6.46259 1.96533 6.76981 1.95459 8.37143 1.95278V1.95493ZM13.7297 3.38184C13.1604 3.38184 12.6985 3.84332 12.6985 4.41274C12.6985 4.98208 13.1604 5.44399 13.7297 5.44399C14.2991 5.44399 14.761 4.98208 14.761 4.41274C14.761 3.84341 14.2991 3.38149 13.7297 3.38149V3.38184ZM9.14237 4.58677C6.70519 4.58677 4.72914 6.56281 4.72914 9.00009C4.72914 11.4374 6.70519 13.4125 9.14237 13.4125C11.5796 13.4125 13.555 11.4374 13.555 9.00009C13.555 6.5629 11.5795 4.58677 9.1422 4.58677H9.14237ZM9.14237 6.13545C10.7244 6.13545 12.007 7.41789 12.007 9.00009C12.007 10.5821 10.7244 11.8647 9.14237 11.8647C7.56027 11.8647 6.27782 10.5821 6.27782 9.00009C6.27782 7.41789 7.56027 6.13545 9.14237 6.13545Z" fill="white"/>
</svg>
