<svg width="21" height="21" viewBox="0 0 21 21" fill="none" xmlns="http://www.w3.org/2000/svg">
<path fill-rule="evenodd" clip-rule="evenodd" d="M7.8538 7.40259H11.5678V9.25259C12.1028 8.18859 13.4748 7.23259 15.5358 7.23259C19.4868 7.23259 20.4248 9.35059 20.4248 13.2366V20.4336H16.4248V14.1216C16.4248 11.9086 15.8898 10.6606 14.5278 10.6606C12.6388 10.6606 11.8538 12.0056 11.8538 14.1206V20.4336H7.8538V7.40259ZM0.994805 20.2636H4.9948V7.23259H0.994805V20.2636ZM5.5678 2.98359C5.56795 3.31887 5.50146 3.65083 5.37219 3.96018C5.24292 4.26953 5.05346 4.55011 4.8148 4.78559C4.33121 5.26622 3.67661 5.53525 2.9948 5.53359C2.31419 5.53314 1.66112 5.26479 1.1768 4.78659C0.939016 4.55031 0.750191 4.26942 0.621148 3.96003C0.492106 3.65063 0.425384 3.31882 0.424805 2.98359C0.424805 2.30659 0.694805 1.65859 1.1778 1.18059C1.66169 0.701752 2.31504 0.433295 2.9958 0.433594C3.6778 0.433594 4.3318 0.702594 4.8148 1.18059C5.2968 1.65859 5.5678 2.30659 5.5678 2.98359Z" fill="black"/>
</svg>
