<svg width="27" height="19" viewBox="0 0 27 19" fill="none" xmlns="http://www.w3.org/2000/svg">
<path d="M25.9926 2.85142C25.8435 2.30028 25.5526 1.79783 25.1489 1.3941C24.7451 0.990365 24.2427 0.699433 23.6916 0.550275C21.6739 0 13.5534 0 13.5534 0C13.5534 0 5.43257 0.0166565 3.4149 0.566931C2.86376 0.716099 2.36131 1.00705 1.9576 1.4108C1.55388 1.81455 1.26298 2.31702 1.11386 2.86817C0.503558 6.45319 0.266811 11.9159 1.13061 15.3575C1.27975 15.9087 1.57066 16.4111 1.97437 16.8148C2.37809 17.2186 2.88053 17.5095 3.43165 17.6587C5.44933 18.2089 13.57 18.2089 13.57 18.2089C13.57 18.2089 21.6906 18.2089 23.7081 17.6587C24.2593 17.5095 24.7617 17.2186 25.1655 16.8149C25.5692 16.4111 25.8601 15.9087 26.0093 15.3575C26.653 11.7674 26.8513 6.30805 25.9926 2.85142Z" fill="black"/>
<path d="M10.9687 13.0059L17.7052 9.10404L10.9687 5.20215V13.0059Z" fill="white"/>
</svg>
